# File created by Blade
# Date/Time:  Wed Jan 21 19:14:05 2015
#---------------------------------------------------------
:version 1.10
:name HOM
:units
  mass 1.0
  length 1.000000
  angle deg
:documentation
     Acclaim Skeleton File
:root
   axis xyz
   order TX TY TZ RX RY RZ
   position 0.000000 0.000000 0.000000
   orientation 0 0 0
:bonedata
   begin
      id 1
      name RightUpLeg_dum
      direction -1.000000 0.000000 0.000000
      length 3.693983
      axis 0.0 0.0 0.0 xyz
   end
   begin
      id 2
      name LeftUpLeg_dum
      direction 1.000000 0.000000 0.000000
      length 3.693983
      axis 0.0 0.0 0.0 xyz
   end
   begin
      id 3
      name Spine_dum
      direction 0.000000 1.000000 0.000000
      length 2.392956
      axis 0.0 0.0 0.0 xyz
   end
   begin
      id 4
      name RightUpLeg
      direction 0.000000 -1.000000 0.000000
      length 15.795667
      axis 0.0 0.0 0.0 xyz
      dof rx ry rz
   end
   begin
      id 5
      name RightLeg
      direction 0.000000 -1.000000 0.000000
      length 14.766989
      axis 0.0 0.0 0.0 xyz
      dof rx ry rz
   end
   begin
      id 6
      name RightFoot
      direction 0.000000 -0.258819 0.965926
      length 4.962790
      axis 15.0 0.0 0.0 xyz
      dof rx ry rz
   end
   begin
      id 7
      name RightToeBase
      direction 0.000000 0.000000 1.000000
      length 2.952750
      axis 0.0 0.0 0.0 xyz
      dof rx ry rz
   end
   begin
      id 8
      name LeftUpLeg
      direction 0.000000 -1.000000 0.000000
      length 15.795667
      axis 0.0 0.0 0.0 xyz
      dof rx ry rz
   end
   begin
      id 9
      name LeftLeg
      direction 0.000000 -1.000000 0.000000
      length 14.766989
      axis 0.0 0.0 0.0 xyz
      dof rx ry rz
   end
   begin
      id 10
      name LeftFoot
      direction 0.000000 -0.258819 0.965926
      length 4.962790
      axis 15.0 0.0 0.0 xyz
      dof rx ry rz
   end
   begin
      id 11
      name LeftToeBase
      direction 0.000000 0.000000 1.000000
      length 2.952750
      axis 0.0 0.0 0.0 xyz
      dof rx ry rz
   end
   begin
      id 12
      name Spine
      direction 0.000000 1.000000 0.000000
      length 0.000000
      axis 0.0 0.0 0.0 xyz
      dof rx ry rz
   end
   begin
      id 13
      name Spine_dum1
      direction 0.000000 1.000000 0.000000
      length 13.207411
      axis 0.0 0.0 0.0 xyz
   end
   begin
      id 14
      name Spine_dum2
      direction 0.000000 1.000000 0.000000
      length 13.207411
      axis 0.0 0.0 0.0 xyz
   end
   begin
      id 15
      name Spine_dum3
      direction 0.000000 1.000000 0.000000
      length 19.250100
      axis 0.0 0.0 0.0 xyz
   end
   begin
      id 16
      name RightShoulder
      direction -1.000000 0.000000 0.000000
      length 8.140465
      axis 0.0 0.0 90.0 xyz
      dof rx ry rz
   end
   begin
      id 17
      name RightArm
      direction -1.000000 0.000000 0.000000
      length 10.649840
      axis 0.0 0.0 90.0 xyz
      dof rx ry rz
   end
   begin
      id 18
      name RightForeArm
      direction -1.000000 0.000000 0.000000
      length 8.304624
      axis 0.0 0.0 90.0 xyz
      dof ry rz rx
   end
   begin
      id 19
      name RightHand
      direction -1.000000 0.000000 0.000000
      length 0.000000
      axis 0.0 0.0 90.0 xyz
      dof rx ry rz
   end
   begin
      id 20
      name RightHand_dum1
      direction -1.000000 0.000000 0.000000
      length 3.937000
      axis 0.0 0.0 90.0 xyz
   end
   begin
      id 21
      name RightHand_dum2
      direction 0.000000 0.000000 0.000000
      length 0.000000
      axis 0.0 0.0 90.0 xyz
   end
   begin
      id 22
      name RightHandThumb1
      direction 0.000000 0.000000 1.000000
      length 3.937000
      axis 0.0 0.0 90.0 xyz
      dof rx rz ry
   end
   begin
      id 23
      name LeftShoulder
      direction 1.000000 0.000000 0.000000
      length 8.140465
      axis 0.0 0.0 -90.0 xyz
      dof rx ry rz
   end
   begin
      id 24
      name LeftArm
      direction 1.000000 0.000000 0.000000
      length 10.649840
      axis 0.0 0.0 -90.0 xyz
      dof rx ry rz
   end
   begin
      id 25
      name LeftForeArm
      direction 1.000000 0.000000 0.000000
      length 8.304624
      axis 0.0 0.0 -90.0 xyz
      dof ry rz rx
   end
   begin
      id 26
      name LeftHand
      direction 1.000000 0.000000 0.000000
      length 0.000000
      axis 0.0 0.0 -90.0 xyz
      dof rx ry rz
   end
   begin
      id 27
      name LeftHand_dum1
      direction 1.000000 0.000000 0.000000
      length 3.937000
      axis 0.0 0.0 -90.0 xyz
   end
   begin
      id 28
      name LeftHand_dum2
      direction 0.000000 0.000000 0.000000
      length 0.000000
      axis 0.0 0.0 -90.0 xyz
   end
   begin
      id 29
      name LeftHandThumb1
      direction 0.000000 0.000000 1.000000
      length 3.937000
      axis 0.0 0.0 -90.0 xyz
      dof rx rz ry
   end
   begin
      id 30
      name Head
      direction 0.000000 1.000000 0.000000
      length 4.527550
      axis 0.0 0.0 0.0 xyz
      dof rx ry rz
   end
:hierarchy
   begin
      root RightUpLeg_dum LeftUpLeg_dum Spine_dum
      RightUpLeg_dum RightUpLeg
      LeftUpLeg_dum LeftUpLeg
      Spine_dum Spine
      RightUpLeg RightLeg
      RightLeg RightFoot
      RightFoot RightToeBase
      LeftUpLeg LeftLeg
      LeftLeg LeftFoot
      LeftFoot LeftToeBase
      Spine Spine_dum1 Spine_dum2 Spine_dum3
      Spine_dum1 RightShoulder
      Spine_dum2 LeftShoulder
      Spine_dum3 Head
      RightShoulder RightArm
      RightArm RightForeArm
      RightForeArm RightHand
      RightHand RightHand_dum1 RightHand_dum2
      RightHand_dum2 RightHandThumb1
      LeftShoulder LeftArm
      LeftArm LeftForeArm
      LeftForeArm LeftHand
      LeftHand LeftHand_dum1 LeftHand_dum2
      LeftHand_dum2 LeftHandThumb1
   end

# File created by Blade
# Date/Time:  Wed Jan 21 19:13:57 2015
# Frame Rate: 120.000 fps
#------------------------------------------------------
:FULLY-SPECIFIED
:DEGREES
471
root -7.833920 34.503537 -0.540910 36.942711 52.534966 -97.059423
RightUpLeg 11.251819 -5.854883 -23.448811
RightLeg 58.760077 -0.000000 -0.000000
RightFoot 28.729272 -24.052435 21.246089
RightToeBase 41.567908 -0.000000 -0.000000
LeftUpLeg -144.267658 32.827321 -25.983751
LeftLeg -2.910153 -0.000000 0.000000
LeftFoot 2.025076 -16.520270 -29.947691
LeftToeBase 18.550349 -0.000000 -0.000000
Spine -74.156468 -2.373475 26.126460
RightShoulder -35.563433 2.582489 -33.793097
RightArm -14.251461 -38.868642 45.898668
RightForeArm -19.034750 -0.000000 4.567544
RightHand 8.087785 -0.000000 24.207473
RightHandThumb1 -24.326973 -0.000000 -32.862282
LeftShoulder -22.928733 -13.379231 57.765261
LeftArm 46.692224 -27.600192 -9.852258
LeftForeArm 25.329626 -0.000000 9.334328
LeftHand -23.892313 -0.000000 9.289057
LeftHandThumb1 -26.253704 0.000000 33.147579
Head -29.561812 33.817406 42.327474
472
root -7.847909 34.493309 -0.560330 37.204067 52.552067 -96.831198
RightUpLeg 11.192680 -5.768869 -23.420846
RightLeg 58.806197 -0.000000 -0.000000
RightFoot 28.422088 -24.194935 21.457251
RightToeBase 41.565782 -0.000000 -0.000000
LeftUpLeg -144.283207 32.890393 -25.913058
LeftLeg -2.760158 -0.000000 0.000000
LeftFoot 1.776083 -16.589240 -29.928012
LeftToeBase 19.488927 -0.000000 -0.000000
Spine -74.211583 -2.448260 26.011012
RightShoulder -35.524898 2.649853 -33.854141
RightArm -14.439244 -38.809137 46.070278
RightForeArm -19.004097 -0.000000 4.567189
RightHand 8.251802 -0.000000 24.073706
RightHandThumb1 -24.326973 -0.000000 -32.862282
LeftShoulder -23.024433 -13.015111 57.644254
LeftArm 46.818708 -27.439834 -9.844027
LeftForeArm 24.960877 -0.000000 8.852169
LeftHand -23.888937 -0.000000 10.213836
LeftHandThumb1 -26.253704 0.000000 33.147579
Head -29.636610 33.737024 42.130760
473
root -7.861613 34.481262 -0.583859 37.428195 52.561570 -96.662483
RightUpLeg 11.064725 -5.653040 -23.379401
RightLeg 58.946028 -0.000000 -0.000000
RightFoot 27.990024 -24.271887 21.711900
RightToeBase 41.533877 -0.000000 -0.000000
LeftUpLeg -144.385708 32.870574 -25.897041
LeftLeg -2.581150 -0.000000 0.000000
LeftFoot 1.530716 -16.761712 -30.521304
LeftToeBase 21.226386 -0.000000 -0.000000
Spine -74.243405 -2.467307 25.897072
RightShoulder -35.492549 2.673956 -33.885696
RightArm -14.589847 -38.571294 46.224612
RightForeArm -19.129368 -0.000000 4.596090
RightHand 8.245935 0.000000 23.954991
RightHandThumb1 -24.326973 -0.000000 -32.862282
LeftShoulder -23.109663 -12.796248 57.637698
LeftArm 46.812768 -27.071530 -9.908227
LeftForeArm 24.566709 0.000000 8.291483
LeftHand -23.595572 -0.000000 11.228650
LeftHandThumb1 -26.253704 0.000000 33.147579
Head -29.798366 33.666954 41.854162
474
root -7.873182 34.466862 -0.609555 37.643548 52.542804 -96.492440
RightUpLeg 10.885758 -5.522054 -23.367106
RightLeg 59.183558 -0.000000 -0.000000
RightFoot 27.755270 -24.139157 21.570621
RightToeBase 41.539064 -0.000000 -0.000000
LeftUpLeg -144.465229 32.884312 -25.880593
LeftLeg -2.379674 -0.000000 0.000000
LeftFoot 1.174735 -16.971175 -30.605965
LeftToeBase 22.393947 -0.000000 -0.000000
Spine -74.241222 -2.454057 25.737764
RightShoulder -35.503123 2.614285 -33.823877
RightArm -14.606843 -38.313244 46.305162
RightForeArm -19.380558 -0.000000 4.606892
RightHand 8.219255 -0.000000 23.951671
RightHandThumb1 -24.326973 -0.000000 -32.862282
LeftShoulder -23.195003 -12.498357 57.634556
LeftArm 46.788649 -26.624464 -9.930099
LeftForeArm 24.188717 -0.000000 7.500220
LeftHand -23.386973 -0.000000 12.314331
LeftHandThumb1 -26.253704 0.000000 33.147579
Head -30.073751 33.623312 41.509746
475
root -7.883108 34.447485 -0.640665 37.898508 52.503282 -96.214160
RightUpLeg 10.718187 -5.365156 -23.421157
RightLeg 59.492529 -0.000000 -0.000000
RightFoot 27.622132 -24.144006 21.593007
RightToeBase 41.565780 -0.000000 -0.000000
LeftUpLeg -144.391762 32.951084 -25.789027
LeftLeg -2.184368 -0.000000 0.000000
LeftFoot 0.577117 -17.254612 -27.668792
LeftToeBase 20.109085 -0.000000 -0.000000
Spine -74.193506 -2.462248 25.498629
RightShoulder -35.493657 2.640139 -33.772308
RightArm -14.775443 -38.193719 46.464721
RightForeArm -19.653494 -0.000000 4.649488
RightHand 8.052879 -0.000000 23.856692
RightHandThumb1 -24.326973 -0.000000 -32.862282
LeftShoulder -23.302686 -12.077622 57.610231
LeftArm 46.798905 -26.196288 -9.981427
LeftForeArm 23.810666 -0.000000 6.528817
LeftHand -23.188434 -0.000000 13.197617
LeftHandThumb1 -26.253704 0.000000 33.147579
Head -30.417818 33.639444 41.124741
